<?xml version="1.0" ?><svg height="100px" id="Слой_1" style="enable-background:new 0 0 100 100;" version="1.1" viewBox="0 0 100 100" width="100px" xml:space="preserve" xmlns="http://www.w3.org/2000/svg" xmlns:xlink="http://www.w3.org/1999/xlink"><g><path d="M20.63317,80.73641C9.25573,80.73641,0,71.4797,0,60.10225S9.25573,39.4681,20.63317,39.4681   s20.63317,9.25671,20.63317,20.63416S32.01062,80.73641,20.63317,80.73641z M20.63317,42.8365   c-9.52119,0-17.26674,7.74555-17.26674,17.26575s7.74555,17.26576,17.26674,17.26576s17.26674-7.74555,17.26674-17.26576   S30.15436,42.8365,20.63317,42.8365z"/><path d="M79.36683,80.73641c-11.37745,0-20.63317-9.25671-20.63317-20.63416S67.98938,39.4681,79.36683,39.4681   S100,48.72481,100,60.10225S90.74427,80.73641,79.36683,80.73641z M79.36683,42.8365   c-9.52119,0-17.26674,7.74555-17.26674,17.26575s7.74555,17.26576,17.26674,17.26576s17.26674-7.74555,17.26674-17.26576   S88.88802,42.8365,79.36683,42.8365z"/><path d="M71.37548,35.41737H37.24314c-0.9301,0-1.68322-0.7541-1.68322-1.6842s0.75312-1.6842,1.68322-1.6842h34.13234   c0.93009,0,1.68321,0.7541,1.68321,1.6842S72.30557,35.41737,71.37548,35.41737z"/><path d="M20.63121,61.78645c-0.30676,0-0.61744-0.08357-0.8947-0.25956c-0.78852-0.49553-1.02448-1.53476-0.52896-2.32229   l16.60997-26.36909c0.49749-0.78655,1.53967-1.02153,2.32229-0.52699c0.78852,0.49553,1.02448,1.53476,0.52896,2.32229   L22.05879,60.9999C21.73828,61.50821,21.19162,61.78645,20.63121,61.78645z"/><path d="M51.62717,59.04729c-0.38148,0-0.76492-0.1288-1.07954-0.39229c-0.71379-0.59581-0.80818-1.65766-0.21237-2.37145   l19.74831-23.62993c0.59581-0.71478,1.65962-0.80916,2.37144-0.21237c0.7138,0.59581,0.80818,1.65765,0.21237,2.37145   L52.91908,58.44263C52.58677,58.84082,52.10697,59.04729,51.62717,59.04729z"/><path d="M47.91663,58.47606c-0.65087,0-1.27224-0.38147-1.54754-1.01956L30.95861,21.61243   c-0.36575-0.85439,0.02753-1.84446,0.8829-2.21119c0.85144-0.36771,1.84249,0.02655,2.21217,0.88192l15.41048,35.84406   c0.36575,0.85341-0.02753,1.84446-0.8829,2.21119C48.36496,58.43182,48.13882,58.47606,47.91663,58.47606z"/><path d="M45.74771,61.78645H20.63317c-0.9301,0-1.68322-0.7541-1.68322-1.6842s0.75312-1.6842,1.68322-1.6842h25.11454   c0.9301,0,1.68322,0.7541,1.68322,1.6842S46.67781,61.78645,45.74771,61.78645z"/><path d="M42.15121,22.63199H27.71016c-0.93009,0-1.68322-0.7541-1.68322-1.6842s0.75312-1.6842,1.68322-1.6842h14.44106   c0.9301,0,1.68322,0.7541,1.68322,1.6842S43.08131,22.63199,42.15121,22.63199z"/><path d="M79.36683,61.78645c-0.72363,0-1.39023-0.46898-1.61047-1.19556l-7.99135-26.36909   c-0.04916-0.15829-0.07275-0.32347-0.07275-0.48864V23.3448c0-0.9301,0.75312-1.6842,1.68322-1.6842   c0.93009,0,1.68321,0.7541,1.68321,1.6842v10.13863l7.91859,26.13018c0.27136,0.88979-0.23203,1.8307-1.1228,2.10009   C79.69324,61.76286,79.52807,61.78645,79.36683,61.78645z"/><path d="M81.76384,35.24531c-0.9301,0-1.68322-0.7541-1.68322-1.6842s0.75312-1.6842,1.68322-1.6842   c1.87199,0,3.45295-1.55442,3.45295-3.39495c0-1.90443-1.5495-3.45296-3.45295-3.45296H71.37548   c-0.9301,0-1.68322-0.7541-1.68322-1.6842s0.75312-1.6842,1.68322-1.6842h10.38836c3.7597,0,6.81939,3.06066,6.81939,6.82136   C88.58323,32.21119,85.52354,35.24531,81.76384,35.24531z"/><path d="M49.34422,65.38295c-2.9122,0-5.27972-2.36948-5.27972-5.2807s2.36752-5.27972,5.27972-5.27972   c2.91023,0,5.27775,2.3685,5.27775,5.27972S52.25445,65.38295,49.34422,65.38295z M49.34422,58.19094   c-1.07167,0-1.91328,0.83964-1.91328,1.91132c0,1.07266,0.84161,1.9123,1.91328,1.9123s1.91132-0.83964,1.91132-1.9123   C51.25553,59.03058,50.41589,58.19094,49.34422,58.19094z"/></g></svg>